<?xml version="1.0" encoding="UTF-8" standalone="no"?>
<!DOCTYPE svg PUBLIC "-//W3C//DTD SVG 1.1//EN" "http://www.w3.org/Graphics/SVG/1.1/DTD/svg11.dtd">
<svg width="100%" height="100%" viewBox="0 0 722 118" version="1.1" xmlns="http://www.w3.org/2000/svg" xmlns:xlink="http://www.w3.org/1999/xlink" xml:space="preserve" xmlns:serif="http://www.serif.com/" style="fill-rule:evenodd;clip-rule:evenodd;stroke-linejoin:round;stroke-miterlimit:2;">
    <g transform="matrix(1,0,0,1,0,-202.666)">
        <g transform="matrix(2,0,0,2,0,0)">
            <path d="M84.7,146.414C82.192,146.414 79.764,145.861 77.485,144.769C75.198,143.675 73.277,142.141 71.774,140.212L71.051,139.283L76.122,133.52L77.19,134.724C79.555,137.392 81.939,138.688 84.481,138.688C86.19,138.688 87.598,138.162 88.785,137.077C89.935,136.028 90.494,134.845 90.494,133.464C90.494,132.327 90.132,131.34 89.387,130.443C88.826,129.784 87.314,128.56 83.358,126.542C79.508,124.556 76.936,122.612 75.49,120.596C74.019,118.547 73.273,116.18 73.273,113.563C73.273,110.142 74.464,107.254 76.813,104.978C79.15,102.715 82.125,101.567 85.655,101.567C89.696,101.567 93.765,103.517 97.749,107.363L98.772,108.351L93.489,113.811L92.467,112.82C90.005,110.43 87.625,109.219 85.395,109.219C84.085,109.219 82.997,109.636 82.072,110.493C81.177,111.321 80.742,112.241 80.742,113.306C80.742,114.269 81.115,115.184 81.883,116.104C82.478,116.831 83.948,118.082 87.624,119.973C91.684,122.077 94.394,124.085 95.913,126.113C97.448,128.23 98.219,130.623 98.219,133.243C98.219,136.902 96.914,140.047 94.34,142.589C91.771,145.127 88.527,146.414 84.7,146.414Z" style="fill:white;fill-rule:nonzero;"/>
        </g>
        <g transform="matrix(2,0,0,2,0,0)">
            <path d="M120.842,146.414C116.704,146.414 113.176,145.548 110.357,143.84C107.512,142.117 105.36,139.683 103.962,136.603C102.578,133.563 101.906,129.197 101.906,123.256L101.906,102.595L109.889,102.595L109.889,122.669C109.889,127.07 110.118,130.1 110.569,131.677C111.21,133.808 112.405,135.456 114.217,136.697C116.038,137.946 118.26,138.578 120.824,138.578C123.384,138.578 125.568,137.965 127.314,136.757C129.07,135.541 130.248,133.991 130.914,132.018C131.231,131.067 131.611,128.668 131.611,122.669L131.611,102.595L139.704,102.595L139.704,123.623C139.704,129.394 139.03,133.659 137.645,136.666C136.247,139.703 134.11,142.116 131.294,143.837C128.498,145.547 124.981,146.414 120.842,146.414Z" style="fill:white;fill-rule:nonzero;"/>
        </g>
        <g transform="matrix(2,0,0,2,0,0)">
            <path d="M144.455,145.386L144.455,102.595L152.547,102.595L152.547,105.824C153.441,104.898 154.363,104.123 155.305,103.506C157.269,102.22 159.36,101.567 161.518,101.567C163.176,101.567 164.942,102.085 166.765,103.107L168.06,103.832L163.953,110.47L162.827,109.984C161.713,109.504 161.041,109.403 160.673,109.403C159.306,109.403 157.993,109.977 156.658,111.157C155.282,112.375 154.202,114.351 153.449,117.031C152.851,119.169 152.547,123.686 152.547,130.454L152.547,145.386L144.455,145.386Z" style="fill:white;fill-rule:nonzero;"/>
        </g>
        <g transform="matrix(2,0,0,2,0,0)">
            <path d="M189.984,145.386L170.279,102.595L178.879,102.595L191.371,129.722L203.711,102.595L212.347,102.595L192.761,145.386L189.984,145.386Z" style="fill:white;fill-rule:nonzero;"/>
        </g>
        <g transform="matrix(2,0,0,2,0,0)">
            <path d="M244.845,118.53C244.262,116.808 243.521,115.378 242.633,114.267C241.465,112.807 239.887,111.608 237.941,110.702C235.983,109.791 233.897,109.329 231.74,109.329C228.147,109.329 225.15,110.448 222.578,112.749C221.075,114.089 219.849,116.029 218.92,118.53L244.845,118.53ZM231.961,146.414C225.041,146.414 219.535,144.092 215.595,139.512C211.709,134.996 209.739,129.812 209.739,124.101C209.739,118.731 211.411,113.878 214.709,109.675C218.917,104.295 224.622,101.567 231.666,101.567C238.903,101.567 244.768,104.356 249.1,109.856C252.175,113.737 253.762,118.625 253.815,124.382L253.828,125.816L217.948,125.816C218.28,129.45 219.586,132.406 221.917,134.818C224.529,137.521 227.67,138.835 231.519,138.835C233.376,138.835 235.209,138.508 236.966,137.862C238.718,137.218 240.22,136.358 241.432,135.306C242.661,134.239 244.037,132.447 245.521,129.978L246.212,128.829L252.975,132.381L252.338,133.631C250.846,136.562 249.086,138.97 247.109,140.788C245.122,142.616 242.856,144.026 240.372,144.979C237.891,145.932 235.061,146.414 231.961,146.414Z" style="fill:white;fill-rule:nonzero;"/>
        </g>
        <g transform="matrix(2,0,0,2,0,0)">
            <path d="M259.368,160L267.676,140.945L250.646,102.595L259.187,102.595L271.976,131.249L284.394,102.595L292.969,102.595L267.898,160L259.368,160Z" style="fill:white;fill-rule:nonzero;"/>
        </g>
        <g transform="matrix(2,0,0,2,0,0)">
            <path d="M312.08,109.44C308.169,109.44 304.899,110.848 302.081,113.746C299.253,116.654 297.877,120.078 297.877,124.211C297.877,126.839 298.523,129.323 299.796,131.594C301.062,133.851 302.791,135.615 304.935,136.837C307.089,138.066 309.493,138.688 312.08,138.688C314.666,138.688 317.07,138.066 319.224,136.837C321.368,135.615 323.097,133.851 324.364,131.594C325.637,129.323 326.282,126.839 326.282,124.211C326.282,120.079 324.902,116.656 322.062,113.748C319.231,110.849 315.966,109.44 312.08,109.44ZM312.098,146.414C305.585,146.414 300.18,144.156 296.033,139.701C291.911,135.276 289.822,130.027 289.822,124.101C289.822,118.231 291.801,113.067 295.706,108.754C300.013,103.985 305.528,101.567 312.098,101.567C318.642,101.567 324.144,103.972 328.452,108.715C332.358,113.031 334.338,118.207 334.338,124.101C334.338,130.027 332.248,135.276 328.127,139.701C323.979,144.156 318.586,146.414 312.098,146.414Z" style="fill:white;fill-rule:nonzero;"/>
        </g>
        <g transform="matrix(2,0,0,2,0,0)">
            <path d="M337.18,145.386L337.18,102.595L345.273,102.595L345.273,105.824C346.166,104.898 347.088,104.123 348.03,103.506C349.995,102.22 352.085,101.567 354.243,101.567C355.901,101.567 357.667,102.085 359.491,103.107L360.785,103.832L356.679,110.47L355.553,109.984C354.438,109.504 353.766,109.403 353.398,109.403C352.031,109.403 350.718,109.977 349.383,111.157C348.007,112.375 346.927,114.351 346.174,117.031C345.576,119.169 345.273,123.686 345.273,130.454L345.273,145.386L337.18,145.386Z" style="fill:white;fill-rule:nonzero;"/>
        </g>
        <g transform="matrix(2,0,0,2,0,0)">
            <path d="M85.395,108.392C87.848,108.392 90.421,109.682 93.043,112.227L93.47,112.641L97.602,108.371L97.174,107.958C93.35,104.266 89.474,102.394 85.655,102.394C82.347,102.394 79.566,103.464 77.389,105.572C75.207,107.686 74.1,110.375 74.1,113.563C74.1,116.004 74.794,118.208 76.162,120.114C77.53,122.021 80.006,123.881 83.734,125.804C87.008,127.474 89.125,128.859 90.023,129.914C90.897,130.967 91.321,132.127 91.321,133.464C91.321,135.091 90.674,136.473 89.343,137.688C87.996,138.918 86.406,139.516 84.481,139.516C81.727,139.516 79.066,138.088 76.571,135.273L76.125,134.769L72.124,139.316L72.426,139.704C73.85,141.531 75.673,142.985 77.842,144.023C80.009,145.061 82.316,145.587 84.7,145.587C88.302,145.587 91.349,144.381 93.758,142.001C96.17,139.619 97.392,136.673 97.392,133.244C97.392,130.802 96.674,128.572 95.251,126.609C93.809,124.683 91.191,122.753 87.246,120.709C84.193,119.138 82.176,117.768 81.248,116.634C80.351,115.559 79.914,114.47 79.914,113.306C79.914,111.997 80.436,110.879 81.51,109.886C82.595,108.881 83.866,108.392 85.395,108.392Z" style="fill:rgb(88,89,91);fill-rule:nonzero;"/>
        </g>
        <g transform="matrix(2,0,0,2,0,0)">
            <path d="M132.438,122.669C132.438,127.575 132.188,130.81 131.697,132.283C130.981,134.401 129.666,136.135 127.784,137.437C125.897,138.743 123.556,139.405 120.824,139.405C118.09,139.405 115.71,138.724 113.749,137.38C111.803,136.046 110.464,134.202 109.774,131.905C109.301,130.256 109.062,127.147 109.062,122.669L109.062,103.422L102.733,103.422L102.733,123.256C102.733,128.995 103.4,133.371 104.714,136.261C106.043,139.186 108.086,141.498 110.785,143.133C113.474,144.761 116.858,145.587 120.842,145.587C124.827,145.587 128.198,144.76 130.863,143.131C133.537,141.497 135.566,139.205 136.894,136.319C138.21,133.464 138.876,129.192 138.876,123.623L138.876,103.422L132.438,103.422L132.438,122.669Z" style="fill:rgb(88,89,91);fill-rule:nonzero;"/>
        </g>
        <g transform="matrix(2,0,0,2,0,0)">
            <path d="M161.518,102.394C159.523,102.394 157.585,103.002 155.758,104.199C154.361,105.113 153.008,106.4 151.72,108.036L151.72,103.422L145.282,103.422L145.282,144.559L151.72,144.559L151.72,130.454C151.72,123.609 152.034,119.019 152.653,116.808C153.45,113.972 154.613,111.862 156.11,110.537C157.582,109.235 159.117,108.575 160.673,108.575C161.321,108.575 162.156,108.794 163.155,109.224L163.626,109.427L166.902,104.131L166.361,103.829C164.663,102.877 163.033,102.394 161.518,102.394Z" style="fill:rgb(88,89,91);fill-rule:nonzero;"/>
        </g>
        <g transform="matrix(2,0,0,2,0,0)">
            <path d="M191.375,131.71L178.35,103.422L171.571,103.422L190.513,144.559L192.23,144.559L211.059,103.422L204.244,103.422L191.375,131.71Z" style="fill:rgb(88,89,91);fill-rule:nonzero;"/>
        </g>
        <g transform="matrix(2,0,0,2,0,0)">
            <path d="M217.761,119.358C218.771,116.186 220.203,113.758 222.026,112.133C224.719,109.724 227.987,108.502 231.74,108.502C234.019,108.502 236.223,108.99 238.29,109.952C240.352,110.912 242.031,112.19 243.279,113.751C244.411,115.167 245.314,117.051 245.967,119.358L217.761,119.358ZM252.987,124.389C252.937,118.821 251.41,114.103 248.45,110.368C244.283,105.077 238.636,102.394 231.666,102.394C224.89,102.394 219.403,105.016 215.359,110.185C212.178,114.239 210.566,118.921 210.566,124.101C210.566,129.608 212.469,134.611 216.222,138.973C219.998,143.362 225.293,145.587 231.961,145.587C234.959,145.587 237.688,145.123 240.075,144.207C242.461,143.292 244.64,141.936 246.549,140.18C248.454,138.428 250.153,136.098 251.601,133.256L251.867,132.733L246.519,129.924L246.23,130.404C244.701,132.947 243.269,134.807 241.975,135.931C240.687,137.049 239.098,137.96 237.251,138.638C235.402,139.318 233.473,139.663 231.519,139.663C227.491,139.663 224.06,138.226 221.322,135.393C218.7,132.68 217.269,129.181 217.062,124.988L252.993,124.988L252.987,124.389Z" style="fill:rgb(88,89,91);fill-rule:nonzero;"/>
        </g>
        <g transform="matrix(2,0,0,2,0,0)">
            <path d="M271.987,133.304L258.651,103.422L251.918,103.422L268.58,140.942L260.631,159.173L267.357,159.173L291.705,103.422L284.937,103.422L271.987,133.304Z" style="fill:rgb(88,89,91);fill-rule:nonzero;"/>
        </g>
        <g transform="matrix(2,0,0,2,0,0)">
            <path d="M327.109,124.211C327.109,126.982 326.428,129.603 325.085,131.998C323.744,134.388 321.91,136.258 319.634,137.556C317.354,138.856 314.813,139.516 312.08,139.516C309.347,139.516 306.805,138.856 304.525,137.555C302.249,136.258 300.415,134.388 299.075,131.998C297.731,129.603 297.05,126.983 297.05,124.211C297.05,119.912 298.543,116.197 301.488,113.169C304.428,110.145 307.992,108.612 312.08,108.612C316.144,108.612 319.701,110.146 322.654,113.169C325.61,116.198 327.109,119.913 327.109,124.211ZM312.098,102.394C305.772,102.394 300.463,104.721 296.32,109.309C292.557,113.466 290.649,118.442 290.649,124.101C290.649,129.812 292.664,134.87 296.638,139.137C300.623,143.417 305.825,145.587 312.098,145.587C318.347,145.587 323.536,143.417 327.521,139.137C331.496,134.87 333.511,129.812 333.511,124.101C333.511,118.418 331.603,113.429 327.839,109.272C323.695,104.708 318.399,102.394 312.098,102.394Z" style="fill:rgb(88,89,91);fill-rule:nonzero;"/>
        </g>
        <g transform="matrix(2,0,0,2,0,0)">
            <path d="M359.086,103.829C357.388,102.877 355.758,102.394 354.243,102.394C352.248,102.394 350.31,103.002 348.483,104.199C347.086,105.113 345.733,106.4 344.445,108.036L344.445,103.422L338.007,103.422L338.007,144.559L344.445,144.559L344.445,130.454C344.445,123.61 344.759,119.019 345.378,116.808C346.175,113.972 347.338,111.862 348.835,110.537C350.307,109.235 351.842,108.575 353.398,108.575C354.046,108.575 354.881,108.794 355.88,109.224L356.351,109.427L359.627,104.131L359.086,103.829Z" style="fill:rgb(88,89,91);fill-rule:nonzero;"/>
        </g>
        <g transform="matrix(2,0,0,2,0,0)">
            <path d="M35.582,118.527C34.991,116.781 34.24,115.332 33.34,114.205C32.156,112.726 30.556,111.51 28.584,110.592C26.599,109.669 24.485,109.201 22.299,109.201C18.658,109.201 15.62,110.335 13.012,112.667C11.489,114.025 10.247,115.991 9.305,118.527L35.582,118.527ZM22.523,146.788C15.509,146.788 9.929,144.435 5.935,139.793C1.996,135.216 0,129.96 0,124.173C0,118.73 1.694,113.811 5.037,109.551C9.302,104.099 15.085,101.333 22.225,101.333C29.559,101.333 35.504,104.16 39.894,109.735C43.011,113.668 44.62,118.622 44.673,124.457L44.686,125.91L8.32,125.91C8.657,129.594 9.98,132.59 12.343,135.035C14.99,137.775 18.174,139.107 22.076,139.107C23.958,139.107 25.815,138.775 27.596,138.12C29.371,137.468 30.894,136.597 32.123,135.53C33.368,134.449 34.763,132.632 36.267,130.129L36.968,128.965L43.822,132.565L43.176,133.832C41.664,136.802 39.881,139.243 37.877,141.086C35.863,142.939 33.566,144.368 31.048,145.334C28.533,146.299 25.665,146.788 22.523,146.788Z" style="fill:white;fill-rule:nonzero;"/>
        </g>
        <g transform="matrix(2,0,0,2,0,0)">
            <path d="M8.131,119.365C9.154,116.15 10.606,113.689 12.453,112.042C15.183,109.601 18.496,108.362 22.299,108.362C24.607,108.362 26.841,108.857 28.938,109.832C31.029,110.805 32.73,112.101 33.994,113.682C35.142,115.117 36.057,117.027 36.719,119.365L8.131,119.365ZM36.986,130.562C35.436,133.139 33.985,135.024 32.673,136.163C31.367,137.296 29.756,138.22 27.885,138.907C26.011,139.596 24.057,139.945 22.076,139.945C17.992,139.945 14.515,138.489 11.74,135.618C9.082,132.868 7.632,129.322 7.422,125.072L43.84,125.072L43.835,124.465C43.783,118.821 42.236,114.039 39.236,110.254C35.012,104.891 29.289,102.172 22.225,102.172C15.357,102.172 9.795,104.829 5.697,110.068C2.473,114.177 0.838,118.922 0.838,124.172C0.838,129.754 2.767,134.825 6.571,139.247C10.398,143.695 15.765,145.95 22.523,145.95C25.562,145.95 28.329,145.479 30.747,144.552C33.167,143.623 35.374,142.25 37.309,140.469C39.239,138.694 40.962,136.333 42.429,133.452L42.699,132.922L37.278,130.075L36.986,130.562Z" style="fill:rgb(102,163,71);fill-rule:nonzero;"/>
        </g>
        <g transform="matrix(2,0,0,2,0,0)">
            <rect x="47.339" y="117.798" width="22.066" height="7.797" style="fill:white;fill-rule:nonzero;"/>
        </g>
        <g transform="matrix(2,0,0,2,0,0)">
            <rect x="48.385" y="118.843" width="19.974" height="5.707" style="fill:rgb(102,163,71);fill-rule:nonzero;"/>
        </g>
    </g>
</svg>
