<svg xmlns="http://www.w3.org/2000/svg" xmlns:xlink="http://www.w3.org/1999/xlink" width="512" height="559" viewBox="0 0 512 559">
  <defs>
    <rect id="rect-1" width="512" height="559" x="0" y="0"/>
    <mask id="mask-2" maskContentUnits="userSpaceOnUse" maskUnits="userSpaceOnUse">
      <rect width="512" height="559" x="0" y="0" fill="black"/>
      <use fill="white" xlink:href="#rect-1"/>
    </mask>
    <path id="path-4" fill-rule="evenodd" d="M0 0v559h512V0H0z"/>
    <mask id="mask-5" maskContentUnits="userSpaceOnUse" maskUnits="userSpaceOnUse">
      <rect width="512" height="559" x="0" y="0" fill="black"/>
      <use fill="white" xlink:href="#path-4"/>
    </mask>
    <path id="path-10" fill-rule="evenodd" d="M321 266.62921348L419.5 249.5l57.5 60.61235955L359.69767442 342 321 266.62921348z"/>
    <path id="path-12" fill-rule="evenodd" d="M124.5 447l127.67829457-36L321 493.4269663 175.875969 542 124.5 447z"/>
  </defs>
  <g>
    <use fill="none" xlink:href="#rect-1"/>
    <g mask="url(#mask-2)">
      <rect width="512" height="559" x="0" y="0" fill="none" rx="0" ry="0"/>
      <g>
        <use fill="none" xlink:href="#path-4"/>
        <g mask="url(#mask-5)">
          <g>
            <g>
              <path fill="rgb(0,0,0)" fill-rule="evenodd" d="M172.03344727 119.7301178c0-31.86791992-25.9494629-57.79771424-57.8470459-57.79771424-31.89207459 0-57.84152985 25.92979432-57.84152985 57.79771424 0 31.87341308 25.94945526 57.79771423 57.84152985 57.79771423 31.897583.00549317 57.8470459-25.92430115 57.8470459-57.79771423zm-87.5161438 0c0-16.34632874 13.31037903-29.6466217 29.6690979-29.6466217 16.3642273 0 29.67459106 13.30029296 29.67459106 29.6466217 0 16.34632873-13.31036377 29.6466217-29.67459106 29.6466217-16.35871887.00549317-29.6690979-13.30029297-29.6690979-29.6466217z"/>
              <path fill="rgb(0,0,0)" fill-rule="evenodd" d="M219.30479431 161.19799042c.0990448-.20343018.1980896-.41235352.29164124-.62130738 6.3993225-14.55389404 9.64575195-30.04248046 9.64575195-46.04241943C229.2421875 51.38124466 177.82749939 0 114.62109375 0 51.42019653 0 0 51.38124466 0 114.53426361c0 15.9944458 3.24643302 31.48303223 9.65126038 46.04241943.08803844.20895386.18708229.4178772.29162883.62130738 0 0 94.99943257 192.80200195 104.67820454 192.80200195s104.68370056-192.80200195 104.68370056-192.80200195zm-191.13235855-46.6637268c0-47.63143159 38.78111649-86.3831711 86.44865799-86.3831711s86.44866943 38.75173951 86.44866943 86.3831711c0 11.9642105-2.3990631 23.53805541-7.13114929 34.40811156l-79.31752014 158.74575806-79.3120079-158.74575806c-4.7375908-10.87554931-7.13665009-22.44939422-7.13665009-34.40811157z"/>
              <path fill="rgb(0,0,0)" fill-rule="evenodd" d="M272.5 178c-9.08789063 0-16.5 7.40566406-16.5 16.5 0 9.08789063 7.41210938 16.5 16.5 16.5 9.08789063 0 16.5-7.41210938 16.5-16.5 0-9.09433594-7.41210938-16.5-16.5-16.5z"/>
            </g>
            <g>
              <path fill="none" d="M321 266.62921348L419.5 249.5l57.5 60.61235955L359.69767442 342 321 266.62921348z"/>
              <g>
                <use fill="rgb(0,0,0)" fill-opacity="0" xlink:href="#path-10"/>
                <use fill-opacity="0" stroke="rgb(0,0,0)" stroke-dasharray="0 0 0 0" stroke-linecap="butt" stroke-linejoin="miter" stroke-width="24" xlink:href="#path-10"/>
              </g>
            </g>
            <g>
              <path fill="none" d="M124.5 447l127.67829457-36L321 493.4269663 175.875969 542 124.5 447z"/>
              <g>
                <use fill="rgb(0,0,0)" fill-opacity="0" xlink:href="#path-12"/>
                <use fill-opacity="0" stroke="rgb(0,0,0)" stroke-dasharray="0 0 0 0" stroke-linecap="butt" stroke-linejoin="miter" stroke-width="24" xlink:href="#path-12"/>
              </g>
            </g>
          </g>
          <path fill="rgb(0,0,0)" fill-rule="evenodd" d="M359.5 393c-9.08789063 0-16.5 7.40566406-16.5 16.5 0 9.08789063 7.41210938 16.5 16.5 16.5 9.08789063 0 16.5-7.41210938 16.5-16.5 0-9.09433594-7.41210938-16.5-16.5-16.5z"/>
        </g>
      </g>
    </g>
  </g>
</svg>
