<svg xmlns="http://www.w3.org/2000/svg" xmlns:xlink="http://www.w3.org/1999/xlink" width="512" height="559" viewBox="0 0 512 559">
  <defs>
    <rect id="rect-1" width="512" height="559" x="0" y="0"/>
    <mask id="mask-2" maskContentUnits="userSpaceOnUse" maskUnits="userSpaceOnUse">
      <rect width="512" height="559" x="0" y="0" fill="black"/>
      <use fill="white" xlink:href="#rect-1"/>
    </mask>
    <path id="path-6" fill-rule="evenodd" d="M321 266.62921348L419.5 249.5l57.5 60.61235955L359.69767442 342 321 266.62921348z"/>
    <path id="path-7" fill-rule="evenodd" d="M124.5 447l127.67829457-36L321 493.4269663 175.875969 542 124.5 447z"/>
  </defs>
  <g>
    <use fill="none" xlink:href="#rect-1"/>
    <g mask="url(#mask-2)">
      <g>
        <g>
          <path fill="rgb(171,87,0)" fill-rule="evenodd" d="M114.18640184 61.93240233c31.8975796 0 57.84703368 25.92979622 57.84703368 57.79771372 0 31.87341575-25.94945409 57.80321198-57.84703368 57.79771372-31.89207716 0-57.84153125-25.92429797-57.84153125-57.79771372 0-31.8679175 25.94945409-57.79771372 57.84153125-57.79771372zm0 28.15109344c-16.35872074 0-29.66909594 13.300292-29.66909594 29.64662028s13.3103752 29.65211854 29.66909594 29.64662028c16.36422317 0 29.67459837-13.300292 29.67459837-29.64662028s-13.3103752-29.64662028-29.67459837-29.64662028z"/>
          <path fill="rgb(171,87,0)" fill-rule="evenodd" d="M219.59642986 160.57669607c-.09354129.2089339-.192585.4178678-.29162872.62130343 0 0-95.00493518 192.8020005-104.68370739 192.8020005-9.67877221 0-104.67820496-192.8020005-104.67820496-192.8020005-.10454615-.20343563-.20358986-.41236953-.29162872-.62130343C3.24643297 146.01730244 0 130.52870278 0 114.53426317 0 51.3812438 51.42019687 0 114.62109375 0c63.2063993 0 114.62109375 51.38124379 114.62109375 114.53426317 0 15.99993787-3.24643298 31.48853753-9.64575764 46.0424329zM114.62109375 28.15109344c-47.66754045 0-86.44865844 38.75173956-86.44865844 86.38316973 0 11.95871645 2.39905895 23.53255467 7.13665012 34.40811382l79.31200832 158.74577535 79.31751075-158.74577535c4.73208874-10.87006089 7.13114769-22.4438991 7.13114769-34.40811382 0-47.63143017-38.78111799-86.38316973-86.44865844-86.38316973z"/>
          <path fill="rgb(171,87,0)" fill-rule="evenodd" d="M272.5 178c-9.08789063 0-16.5 7.40566406-16.5 16.5 0 9.08789063 7.41210938 16.5 16.5 16.5 9.08789063 0 16.5-7.41210938 16.5-16.5 0-9.09433594-7.41210938-16.5-16.5-16.5z"/>
        </g>
        <g>
          <use fill="rgb(0,0,0)" fill-opacity="0" xlink:href="#path-6"/>
          <use fill-opacity="0" stroke="rgb(171,87,0)" stroke-dasharray="0 0 0 0" stroke-linecap="butt" stroke-linejoin="miter" stroke-width="24" xlink:href="#path-6"/>
        </g>
        <g>
          <use fill="rgb(0,0,0)" fill-opacity="0" xlink:href="#path-7"/>
          <use fill-opacity="0" stroke="rgb(171,87,0)" stroke-dasharray="0 0 0 0" stroke-linecap="butt" stroke-linejoin="miter" stroke-width="24" xlink:href="#path-7"/>
        </g>
      </g>
      <path fill="rgb(171,87,0)" fill-rule="evenodd" d="M359.5 393c-9.08789063 0-16.5 7.40566406-16.5 16.5 0 9.08789063 7.41210938 16.5 16.5 16.5 9.08789063 0 16.5-7.41210938 16.5-16.5 0-9.09433594-7.41210938-16.5-16.5-16.5z"/>
    </g>
  </g>
</svg>
