<?xml version="1.0" encoding="UTF-8" standalone="no"?><!DOCTYPE svg PUBLIC "-//W3C//DTD SVG 1.1//EN" "http://www.w3.org/Graphics/SVG/1.1/DTD/svg11.dtd"><svg width="100%" height="100%" viewBox="0 0 1250 1250" version="1.1" xmlns="http://www.w3.org/2000/svg" xmlns:xlink="http://www.w3.org/1999/xlink" xml:space="preserve" xmlns:serif="http://www.serif.com/" style="fill-rule:evenodd;clip-rule:evenodd;stroke-linejoin:round;stroke-miterlimit:2;"><g><path d="M898.98,75.628c-100.115,20.743 -166.94,78.244 -193.509,172.527c-9.626,34.696 -11.551,91.643 -3.85,127.471c6.161,28.662 -1.54,91.266 -9.627,79.952c-2.695,-3.394 -6.16,-16.217 -7.316,-27.908c-8.086,-71.278 -33.885,-126.339 -80.861,-171.972c-52.368,-51.667 -103.072,-58.17 -180.853,-58.17c-81.632,-0 -119.752,20.365 -80.862,42.993c17.713,10.182 26.445,16.685 59.56,83.061c34.27,68.638 56.218,98.054 88.563,118.419c39.276,24.891 77.396,31.302 159.413,25.645c10.782,-0.754 12.707,1.509 30.035,33.188c10.011,18.48 18.482,36.205 18.482,38.468c0,2.64 -3.85,4.902 -8.471,4.902c-18.868,0 -61.994,31.302 -75.086,54.685c-3.465,5.657 -5.391,5.657 -26.184,-0c-35.81,-10.56 -82.787,-6.789 -115.131,9.051c-45.437,21.873 -79.707,62.227 -91.259,107.483c-3.465,14.331 -6.161,17.725 -16.557,20.742c-6.546,1.885 -31.96,10.182 -56.218,18.856c-24.259,8.297 -50.443,16.217 -58.144,17.349c-11.937,2.262 -13.862,1.131 -18.097,-7.166c-2.311,-5.28 -8.472,-12.068 -13.863,-15.462c-9.241,-6.035 -11.936,-6.035 -47.361,3.394c-40.431,10.182 -51.213,17.725 -51.213,35.827c0,11.691 97.419,369.213 103.58,380.904c6.931,12.446 21.563,13.577 60.839,4.526c38.891,-9.428 53.523,-19.988 50.057,-36.959c-1.54,-7.543 0.385,-8.674 16.173,-11.314c9.626,-1.509 37.735,-2.64 61.994,-2.64c39.661,0.754 51.212,2.64 109.356,18.102c69.695,18.48 100.884,21.497 127.838,12.069c8.472,-2.64 93.954,-49.782 190.218,-104.089c96.264,-54.307 193.298,-109.368 215.632,-121.814c48.902,-27.531 59.683,-36.582 67.769,-57.701c16.558,-42.616 -6.161,-89.381 -51.597,-105.597c-0.385,-0 1.925,-6.789 5.391,-14.708c23.873,-56.193 8.471,-126.717 -38.121,-172.35c-55.833,-54.684 -151.327,-61.095 -211.396,-14.331c-12.707,10.183 -14.247,10.56 -19.253,4.903c-7.701,-9.429 -49.672,-27.531 -63.534,-27.531c-11.166,0 -12.707,-1.509 -15.017,-13.954c-2.695,-14.331 0.77,-77.312 5.391,-98.809c2.695,-12.822 3.85,-13.199 27.724,-17.725c70.85,-12.822 122.448,-46.01 147.861,-94.66c14.247,-27.908 21.178,-54.684 29.265,-116.157c8.856,-65.621 5.986,-77.867 19.848,-95.969c23.874,-31.302 2.31,-41.107 -61.609,-27.531Zm19.638,33.188c-7.701,19.988 -5.216,39.776 -10.607,80.884c-7.701,61.472 -11.937,79.952 -25.414,107.86c-12.322,26.022 -32.345,45.633 -60.839,59.587c-24.643,12.445 -73.545,25.645 -73.545,20.365c-0,-8.674 -10.546,-16.77 5.626,-38.644c9.242,-12.445 26.569,-32.433 38.506,-43.747c21.948,-21.119 26.569,-32.81 15.787,-41.484c-3.08,-2.64 -9.626,-3.772 -15.017,-2.263c-18.098,4.525 -24.879,8.472 -50.678,57.5l-13.862,26.022l1.925,-30.925c6.161,-96.923 58.354,-160.459 156.158,-191.761c33.115,-10.56 35.04,-10.56 31.96,-3.394Zm-424.927,117.088c51.597,16.594 97.419,52.799 123.603,97.678c12.706,21.496 32.344,69.769 28.494,69.769c-1.541,0 -9.242,-7.542 -17.713,-16.971c-19.638,-21.873 -78.531,-75.083 -112.801,-94.694c-14.632,-8.297 -27.724,-15.085 -29.264,-15.085c-1.155,-0 -5.391,2.639 -8.471,6.034c-12.322,12.068 -7.316,19.611 27.724,41.484c18.483,11.691 53.887,45.667 69.674,58.867c27.339,22.628 61.609,58.079 61.609,64.113c0,4.525 -82.402,-1.509 -99.344,-7.543c-48.517,-17.348 -62.64,-26.491 -116.163,-138.499c-5.776,-12.069 -16.558,-30.171 -23.489,-40.354l-13.092,-18.856l10.397,-1.886c22.718,-3.771 69.956,-13.485 98.836,-4.057Zm479.779,346.962c13.477,4.526 26.184,13.577 43.127,29.794c20.408,19.988 24.643,26.776 31.959,50.536c6.931,21.496 8.087,32.81 6.161,49.781c-2.695,28.662 -18.482,62.227 -30.419,65.244c-4.621,1.131 -50.442,25.645 -102.04,55.061c-51.212,29.04 -94.339,52.799 -95.109,52.799c-1.155,-0 -1.925,-6.411 -1.925,-14.331c-0,-21.119 -20.793,-52.799 -41.971,-64.49c-31.19,-16.971 -41.971,-16.971 -110.896,0c-61.994,15.086 -62.765,15.086 -84.713,9.429c-13.862,-3.395 -46.207,-18.857 -83.557,-39.976c-37.735,-21.497 -66.615,-35.451 -75.856,-36.582c-8.471,-1.132 -15.017,-3.772 -15.017,-5.657c-0,-9.806 21.948,-46.388 36.195,-60.342c40.431,-39.976 100.115,-43.655 153.637,-20.273c9.242,4.149 19.253,6.789 21.949,5.657c2.695,-1.131 10.011,-10.559 16.557,-21.496c31.96,-56.193 105.44,-67.316 154.727,-24.323c20.408,17.348 28.879,18.103 41.586,4.903c33.5,-35.45 83.238,-53.082 135.605,-35.734Zm-483.63,223.64c33.5,18.857 68.155,36.582 77.011,39.976c26.954,9.051 58.144,7.166 115.517,-7.92c58.914,-15.085 70.465,-14.708 90.873,2.64c26.569,23.005 26.569,59.21 0.77,81.461c-10.396,8.674 -26.569,14.708 -82.017,29.039c-61.994,16.217 -33.32,7.26 -56.423,4.997c-25.414,-2.262 -26.184,-2.262 -30.805,7.543c-3.85,8.297 -3.465,10.937 3.851,17.725c6.931,6.789 12.706,8.297 38.12,7.92c23.874,0 5.212,7.071 55.269,-6.506c78.166,-21.119 79.321,-21.496 97.804,-38.467c8.471,-7.166 64.69,-41.485 125.528,-75.804c86.638,-48.65 113.592,-62.227 124.374,-62.227c25.798,0 42.356,13.577 46.976,38.091c3.851,22.25 -7.316,35.827 -48.517,59.209c-237.579,134.637 -367.728,208.178 -388.521,219.114c-32.345,17.348 -55.448,17.726 -111.667,1.509c-69.695,-20.365 -98.959,-25.268 -144.396,-24.891c-23.103,0 -50.057,1.886 -59.683,4.149c-9.242,2.262 -17.713,3.771 -18.098,3.017c-1.155,-0.755 -57.373,-204.406 -78.936,-284.358c-0.771,-3.394 7.701,-7.543 25.798,-12.069c15.017,-3.771 46.207,-13.576 69.695,-21.873c23.489,-8.297 46.592,-15.84 51.983,-16.971c20.408,-4.149 37.35,1.885 95.494,34.696Zm-239.505,154.247c25.799,94.661 48.132,175.367 49.287,178.761c1.926,4.149 0.77,7.166 -2.31,8.297c-3.081,0.754 -14.247,3.771 -25.414,7.166c-18.483,5.279 -20.408,5.279 -21.948,-0.755c-7.701,-24.89 -94.724,-346.962 -94.724,-349.602c0,-3.017 20.408,-9.805 46.207,-16.216c1.155,-0 23.103,77.312 48.902,172.349Z" style="fill-rule:nonzero;"/></g></svg>